<svg width="32" height="32" viewBox="0 0 32 32" fill="none" xmlns="http://www.w3.org/2000/svg">
<g clip-path="url(#clip0_263_273)">
<path d="M10.9159 19.4556V29.0956L6.18359 26.2894V16.6494L10.9159 19.4556Z" fill="#30B3FF"/>
<path d="M15.8231 29.6215L29.8447 21.3815V23.8369L15.8231 32.0738L13.5431 30.6708V14.7231L25.0354 7.93231L15.8293 2.63385L4.25388 9.28923V25.24L2.15234 24.0123V8.06154L16.1739 0L18.2785 1.22769L29.8447 8.06154L27.3923 9.28923L15.8231 16.1262V29.6215Z" fill="#417AF4"/>
<path d="M29.8466 9.99023V13.6702L17.9297 20.5072V16.8241L29.8466 9.99023Z" fill="#30B3FF"/>
<path d="M29.8466 15.5996V19.2796L17.9297 26.1135V22.4335L29.8466 15.5996Z" fill="#30B3FF"/>
<path d="M20.2051 7.88608L19.8082 8.1107L16.3497 10.0676L13.1221 11.8953L10.639 10.4707L8.48513 11.7045L10.9159 13.1445V17.5261L6.18359 14.8984V10.3415L8.31282 9.13532L11.5405 7.30762L15.4728 5.08301L17.7128 6.40916H17.7159L19.8082 7.65224L20.2051 7.88608Z" fill="#30B3FF"/>
</g>
<defs>
<clipPath id="clip0_263_273">
<rect width="32" height="32" fill="white"/>
</clipPath>
</defs>
</svg>
